<svg width="28" height="30" viewBox="0 0 28 30" fill="none" xmlns="http://www.w3.org/2000/svg">
<path fill-rule="evenodd" clip-rule="evenodd" d="M26.4444 20.8333C24.5778 20.8333 22.7111 20.5 20.8444 19.8333C20.3778 19.6667 19.7556 19.8333 19.2889 20.1667L15.8667 23.8333C11.5111 21.5 7.93333 17.5 5.6 12.8333L9.02222 9.16667C9.48889 8.66667 9.64444 8 9.33333 7.5C8.86667 5.66667 8.55556 3.66667 8.55556 1.66667C8.55556 0.666667 7.93333 0 7 0H1.55556C0.622222 0 0 0.666667 0 1.66667C0 17.3333 11.8222 30 26.4444 30C27.3778 30 28 29.3333 28 28.3333V22.5C28 21.5 27.3778 20.8333 26.4444 20.8333ZM24.8889 15H28C28 6.66667 21.7778 0 14 0V3.33333C20.0667 3.33333 24.8889 8.5 24.8889 15ZM18.6667 15H21.7778C21.7778 10.3333 18.3556 6.66667 14 6.66667V10C16.6444 10 18.6667 12.1667 18.6667 15Z" fill="white"/>
</svg>
